# xmcd
#
# Track frame offsets:
#	150
#	1950
#	9335
#	21900
#	30227
#	31917
#	42972
#	46667
#	58145
#	61710
#	68977
#	73575
#	83525
#	96654
#	106137
#	111065
#	118047
#	134262
#	145747
#	154540
#	163737
#	165722
#	172227
#	174409
#	185530
#	193895
#
# Disc length: 2700 seconds
#
# Revision: 1
# Processed by: cddbd v1.5.1PL0 Copyright (c) Steve Scherf et al.
# Submitted via: audiograbber 1.81.02
#
DISCID=560a8a1a
DTITLE=Margret Birkenfeld - Puderzucker (www.gerth.de)
DYEAR=2005
DGENRE=Chorus
TTITLE0=Hörszene: "Guten Morgen, kleiner Frosch"
TTITLE1=Hast du heute schon danke gesagt
TTITLE2=Hörszene: "Frühstück am Samstag - Silija geht einkaufen"
TTITLE3=Ein Engel steht bei mir
TTITLE4=Hörszene: "Die Geschichte vom Puderzucker"
TTITLE5=Puderzuckerlied
TTITLE6=Hörszene: "Auf dem Markt"
TTITLE7=Ich möchte eine Marktfrau sein
TTITLE8=Hörszene: "Wir machen einen Ausflug"
TTITLE9=Das Vöglein und ich
TTITLE10=Hörszene: "Zwei Igel"
TTITLE11=Die Igelkinder Lies und Fritz
TTITLE12=Hörszene: "Von Affen und Känguruhs"
TTITLE13=Im Zoo
TTITLE14=Hörszene: "Wir treffen uns zur Kinderstunde"
TTITLE15=Wer ist Jesus
TTITLE16=Hörszene: "Die Geschichte vom kleinen Esel und dem großen König
TTITLE17=Ein kleiner, grauer Esel
TTITLE18=Hörszene: "Was können wir Kinder für Jesus tun?"
TTITLE19=Die Kinder von Jerusalem
TTITLE20=Hörszene: "Ich freu mich auf die Schule"
TTITLE21=Das lustige A-B-C
TTITLE22=Hörszene: "Am ersten Schultag"
TTITLE23=Hei! ich darf zur Schule gehen
TTITLE24=Hörszene: "Eine Armbanduhr für 4,95"
TTITLE25=Schlusslied
EXTD=
EXTT0=
EXTT1=
EXTT2=
EXTT3=
EXTT4=
EXTT5=
EXTT6=
EXTT7=
EXTT8=
EXTT9=
EXTT10=
EXTT11=
EXTT12=
EXTT13=
EXTT14=
EXTT15=
EXTT16=
EXTT17=
EXTT18=
EXTT19=
EXTT20=
EXTT21=
EXTT22=
EXTT23=
EXTT24=
EXTT25=
PLAYORDER=
